Results
version=1
nRows=22
nColumns=24
inDegrees=yes
endheader
time	pelvis_tilt	pelvis_list	pelvis_rotation	pelvis_tx	pelvis_ty	pelvis_tz	hip_flexion_r	hip_adduction_r	hip_rotation_r	knee_angle_r	ankle_angle_r	subtalar_angle_r	mtp_angle_r	hip_flexion_l	hip_adduction_l	hip_rotation_l	knee_angle_l	ankle_angle_l	subtalar_angle_l	mtp_angle_l	lumbar_extension	lumbar_bending	lumbar_rotation
      0.55400000	     -4.69701423	      8.84511003	      7.24624566	     -0.79999395	      0.98679851	      0.25199972	     30.48403366	    -11.81809964	    -10.08698489	     -0.84732031	      1.90827197	     -3.40467668	     -0.84208411	     -9.92896424	      9.79242218	     -3.22177493	     -6.28054631	      9.78067013	     -1.24486530	      0.39798762	     -7.64075230	    -10.51005418	     -4.62481190
      0.55816667	     -4.46634719	      8.70479723	      7.25504662	     -0.79370007	      0.98660239	      0.25237062	     30.24304760	    -11.62832111	     -9.87971168	     -1.34997644	      1.77489083	     -4.00718759	     -1.40977502	    -10.37356943	      9.50280597	     -3.24478663	     -6.59660534	      9.85513755	     -1.04798845	      0.56675777	     -7.82998477	    -10.25536896	     -4.78178875
      0.56233333	     -4.30464491	      8.64371076	      7.37909017	     -0.78756601	      0.98637966	      0.25245889	     30.07739736	    -11.59436404	     -9.80603557	     -1.92075262	      1.54259529	     -4.50910029	     -1.63269433	    -10.73232665	      9.30754219	     -3.01207054	     -6.95629697	      9.84233417	     -1.07290717	      0.64844657	     -7.98309457	    -10.09919696	     -4.84376457
      0.56650000	     -4.02776573	      8.49383955	      7.45954978	     -0.78128427	      0.98639175	      0.25269572	     29.73880648	    -11.42946743	     -9.74681069	     -2.42653230	      1.27276238	     -5.01703831	     -1.92622456	    -11.19258806	      8.99198580	     -2.90330659	     -7.32840103	      9.79353522	     -1.02050316	      0.78390112	     -8.27072330	     -9.82531751	     -5.01999689
      0.57066667	     -3.66359486	      8.32893633	      7.52376813	     -0.77491273	      0.98657778	      0.25291471	     29.28999518	    -11.23882176	     -9.75706115	     -2.93424440	      1.02544366	     -5.48251715	     -2.30241094	    -11.74843138	      8.65004306	     -2.79444741	     -7.69865550	      9.76483476	     -0.94328223	      1.00918278	     -8.60962806	     -9.50282907	     -5.15659324
      0.57483333	     -3.50107040	      8.21250753	      7.60895905	     -0.76856572	      0.98647529	      0.25314011	     29.07067519	    -11.11151091	     -9.70856886	     -3.46407201	      0.61336500	     -6.02518399	     -2.47792227	    -12.06239867	      8.38988472	     -2.63852242	     -8.12414949	      9.65642981	     -0.98038292	      1.14263380	     -8.72367454	     -9.28081548	     -5.25248293
      0.57900000	     -3.33284935	      8.12749272	      7.70351057	     -0.76231292	      0.98641533	      0.25342279	     28.83864880	    -11.01368463	     -9.64595725	     -3.98182171	      0.12827529	     -6.54404367	     -2.56663523	    -12.34316593	      8.15336457	     -2.46634210	     -8.62523652	      9.54735154	     -0.96443453	      1.22678609	     -8.89107840	     -9.10839695	     -5.29297171
      0.58316667	     -2.86403284	      7.89857840	      7.67827106	     -0.75575379	      0.98688903	      0.25391871	     28.21888856	    -10.68220557	     -9.65374880	     -4.36813541	     -0.41155089	     -7.06813304	     -2.79648950	    -12.95141315	      7.72367449	     -2.53856583	     -9.06890482	      9.39786371	     -0.81265506	      1.54304645	     -9.32321820	     -8.71718130	     -5.44252367
      0.58733333	     -2.77421548	      7.78051178	      7.74827302	     -0.74933852	      0.98679945	      0.25423658	     28.04610927	    -10.54084146	     -9.62065515	     -4.84000764	     -1.03995658	     -7.57219704	     -2.85806038	    -13.12271331	      7.47273968	     -2.38100523	     -9.61048318	      9.18966669	     -0.90963576	      1.64067552	     -9.35384399	     -8.51369368	     -5.43846405
      0.59150000	     -2.32600151	      7.56264807	      7.68155927	     -0.74277704	      0.98730395	      0.25488452	     27.43762798	    -10.18826019	     -9.56616314	     -5.17634491	     -1.72601032	     -8.18726484	     -3.00794469	    -13.65480886	      7.06123135	     -2.51111377	    -10.14642362	      8.97165265	     -0.77636256	      2.03462942	     -9.76221748	     -8.15296305	     -5.53095323
      0.59566667	     -2.03582350	      7.39131798	      7.68322876	     -0.73626853	      0.98764406	      0.25532109	     27.00216312	     -9.94244800	     -9.57508390	     -5.54035649	     -2.43825498	     -8.64622616	     -4.22131775	    -14.00371475	      6.73469597	     -2.43930186	    -10.71348155	      8.58203723	     -1.01125574	      7.30175181	    -10.00443915	     -7.85870893	     -5.48095281
      0.59983333	     -1.92262238	      7.22066044	      7.66779613	     -0.72973227	      0.98770690	      0.25592463	     26.77385719	     -9.68752259	     -9.49395627	     -5.91314203	     -3.23793144	     -9.26818784	     -4.21959651	    -14.10375706	      6.42443917	     -2.48269724	    -11.41337394	      8.31138755	     -0.99401016	      7.34930523	    -10.02273161	     -7.61354184	     -5.49867290
      0.60400000	     -1.73984094	      7.04484649	      7.58034346	     -0.72316273	      0.98791561	      0.25663092	     26.47549041	     -9.39316222	     -9.38719640	     -6.26146589	     -4.09181222	     -9.84234937	     -4.21015834	    -14.27058764	      6.11791643	     -2.57054149	    -12.10831931	      7.94821026	     -1.05152221	      7.42471829	    -10.12549940	     -7.35534977	     -5.42915672
      0.60816667	     -1.51620271	      6.85990950	      7.45784026	     -0.71658194	      0.98823316	      0.25741428	     26.12524533	     -9.07075022	     -9.26420601	     -6.57930788	     -4.96722159	    -10.39230053	     -4.19141152	    -14.44882118	      5.80143289	     -2.70990123	    -12.85663960	      7.54297977	     -1.09832683	      7.54277719	    -10.26337179	     -7.08474366	     -5.31842795
      0.61233333	     -1.28537449	      6.65873904	      7.30256373	     -0.70997979	      0.98860199	      0.25826856	     25.77104343	     -8.71909804	     -9.13091185	     -6.89218469	     -5.84390382	    -10.92301104	     -4.16678559	    -14.60539850	      5.47361542	     -2.89678897	    -13.64879752	      7.09459775	     -1.15390377	      7.70240687	    -10.40872799	     -6.80556873	     -5.17035797
      0.61650000	     -0.97876760	      6.45916483	      7.02804711	     -0.70338574	      0.98907142	      0.25943029	     25.36223061	     -8.30444318	     -8.87760232	     -7.20535960	     -6.73652712	    -11.44599251	     -4.10385546	    -14.81689261	      5.14621942	     -3.25738897	    -14.48154889	      6.63479803	     -1.04568646	      8.08929141	    -10.64914034	     -6.55690731	     -4.91531505
      0.62066667	     -0.77746284	      6.25675992	      6.81170161	     -0.69679362	      0.98946995	      0.26043285	     25.05337989	     -7.93323226	     -8.67839569	     -7.52360466	     -7.59345669	    -11.94155270	     -4.04143339	    -14.87179513	      4.83324491	     -3.51844639	    -15.39554370	      6.08273643	     -1.13308654	      8.57156379	    -10.75648830	     -6.30462968	     -4.67222401
      0.62483333	     -0.58654796	      6.01148176	      6.47604048	     -0.69007467	      0.98983581	      0.26165951	     24.78646802	     -7.46940733	     -8.39037997	     -7.87562498	     -8.35842106	    -12.40158615	     -3.93925355	    -14.90196136	      4.49567003	     -3.95516035	    -16.33265957	      5.47213304	     -1.18761839	      9.53394771	    -10.81901898	     -6.01220326	     -4.32085785
      0.62900000	     -0.51189828	      5.83966658	      6.36148402	     -0.68357972	      0.99019587	      0.26233131	     24.62103444	     -7.21970007	     -8.34313996	     -8.26937872	     -9.07602177	    -12.71749293	     -3.93114426	    -14.73197517	      4.23820455	     -4.01976345	    -17.40890337	      4.82230498	     -1.53300909	      9.75576641	    -10.79930943	     -5.77716573	     -4.16965082
      0.63316667	     -0.26766018	      5.57880512	      5.91131543	     -0.67689780	      0.99067789	      0.26385283	     24.31907398	     -6.68785867	     -7.93295731	     -8.63566764	     -9.77523091	    -13.15036786	     -3.88119795	    -14.74502011	      3.88223847	     -4.63230608	    -18.47278754	      4.14301902	     -1.48934298	     10.83075580	    -10.93119757	     -5.49961957	     -3.70125725
      0.63733333	     -0.19749629	      5.39533908	      5.76751181	     -0.67043380	      0.99112244	      0.26452758	     24.17119536	     -6.43281007	     -7.89400953	     -9.06478325	    -10.37868155	    -13.29503815	     -3.88521786	    -14.49342785	      3.62119913	     -4.71789420	    -19.66490052	      3.36335116	     -1.85060451	     10.99114724	    -10.91797213	     -5.24780621	     -3.57287427
      0.64150000	     -0.20627732	      5.20771014	      5.27772373	     -0.66390081	      0.99121773	      0.26621693	     24.20881270	     -5.97824320	     -7.34740894	     -9.56674699	    -10.92091211	    -13.79036226	     -4.01311222	    -14.13097002	      3.36769566	     -5.35784042	    -20.92367609	      2.56285461	     -2.02448036	     18.45660485	    -10.77106916	     -5.11431890	     -3.10993535
